<?xml version="1.0" encoding="utf-8"?>
<svg version="1.1" id="Layer_1" xmlns="http://www.w3.org/2000/svg" xmlns:xlink="http://www.w3.org/1999/xlink" x="0px" y="0px"
	 viewBox="0 0 1681.997 1643.433" enable-background="new 0 0 1681.997 1643.433" xml:space="preserve">
<g>
	<path marker-end="none" marker-start="none" fill="#DE0000" d="M446.208,861.545c47.473,187.626,89.819,369.072,63.762,468.189
		c-16.703,21.968-25.239,48.99-18.218,85.623c-1.872,29.096-21.245,52.724-40.079,76.514
		c-43.436,53.609-56.279,84.854-47.366,100.197c37.709,8.836,76.155,15.243,118.415,9.109c16.701,0.005,35.453,2.345,56.475,7.287
		c5.026-2.682,10.085-4.635,14.574-23.683c-1.201-39.603,7.63-57.355,40.077-23.683c9.343,7.565,18.456,5.97,27.326-5.465
		c0.2-23.182,78.088-49.338,98.375-123.88c-96.092-41.23-106.274-152.011-76.514-295.123c7.765-59.661,38.582-100.429,123.88-96.553
		c42.158,5.363,94.006-1.613,154.848-20.039c36.008-8.856,71.993-13.864,107.484,51.009
		c112.929,217.911-24.44,259.204-123.878,420.825c-17.79,30.581-28.309,59.088,25.502,69.227c36.251,3.05,70.553,10.357,112.949,0
		c30.577-29.362,24.811-91.511,102.019-156.672c10.571-15.457,25.227-15.409,21.861-83.799
		c-6.009-22.07-12.909-43.868,51.009-87.445c49.104-31.907,84.82-69.616,52.829-136.632c-29.769-81.759,0-51.009,27.327-7.287
		c63.946,128.015,42.451,256.207,23.683,384.39c-14.66,23.888-39.524,44.582-69.225,63.762
		c-38.719,30.42-42.81,57.421,14.574,78.336c69.964,10.667,139.409,19.096,182.174-87.445
		c27.638-45.869,40.525-98.967,18.218-163.959c0.894-24.95,1.754-49.906,23.683-74.69c13.63-39.578,19.096-86.414-18.218-171.246
		c-15.661-53.866-24.131-105.617-5.465-149.382c31.377,17.629,52.849,41.757,61.94,72.868c14.024,3.81,24.731,10.241,12.752,34.614
		c-9.532,5.486-5.986,13.257,12.752,23.683c5.595,27.288,18.752,52.049,38.257,74.692c14.112-24.383,27.918-49.174,25.505-94.732
		c-3.582-26.528-30.183-45.398-52.831-65.583c-56.636-50.489-79.127-100.866-87.445-151.204L446.208,861.545z"/>
	<path fill="#1504BD" d="M1171.463,398.819C883.321,526.877,708.996,525.745,635.869,409.75
		c-76.212-67.294-153.576-130.492-245.936-140.276c-39.249-6.702-58.851-27.763-45.544-72.868
		c13.519-48.974-16.921-110.861-54.653-174.889c-47.525,26.831-69.402,102.621-78.336,193.107
		c-87.147-44.48-39.083-109.563-107.484-167.602c-133.05,165.576,28.959,250.63,18.218,273.262
		c-33.183,28.964-41.466,67.494-36.433,111.128c-3.964,74.483-25.773,138.588-54.653,198.57
		c-9.639,42.451-27.877,84.879,52.831,127.523c78.286,17.558,147.979,12.15,191.283-63.762
		c19.582-29.162,43.902-45.023,109.306,54.653l52.831,71.049c-1.512,3.798,13.887,6.305,40.67,7.121
		c43.786,1.333,176.929-11.42,1052.379-5.299C1640.923,399.388,1316.972,338.79,1171.463,398.819z M645.534,775.751l-68.433-49.72
		l-68.433,49.72l26.139-80.448l-68.433-49.72h84.588l26.139-80.448l26.139,80.448h84.588l-68.433,49.72L645.534,775.751z
		 M909.432,775.751l-68.433-49.72l-68.433,49.72l26.139-80.448l-68.433-49.72h84.588l26.139-80.448l26.139,80.448h84.588
		l-68.433,49.72L909.432,775.751z M1173.33,775.751l-68.433-49.72l-68.433,49.72l26.139-80.448l-68.433-49.72h84.588l26.139-80.448
		l26.139,80.448h84.588l-68.433,49.72L1173.33,775.751z M1437.227,775.751l-68.433-49.72l-68.433,49.72l26.139-80.448l-68.433-49.72
		h84.588l26.139-80.448l26.139,80.448h84.588l-68.433,49.72L1437.227,775.751z"/>
</g>
</svg>
