<?xml version="1.0" standalone="no"?>
<!DOCTYPE svg PUBLIC "-//W3C//DTD SVG 1.1//EN" "http://www.w3.org/Graphics/SVG/1.1/DTD/svg11.dtd">
<!--Generator: Xara Designer (www.xara.com), SVG filter version: 6.1.0.16-->
<svg stroke-width="0.501" stroke-linejoin="bevel" fill-rule="evenodd" xmlns:xlink="http://www.w3.org/1999/xlink" xmlns="http://www.w3.org/2000/svg" version="1.1" overflow="visible" width="720pt" height="720pt" viewBox="0 0 720 720">
 <defs>
	</defs>
 <g id="Document" fill="none" stroke="black" font-family="Times New Roman" font-size="16" transform="scale(1 -1)">
  <g id="Spread" transform="translate(0 -720)">
   <g id="Layer 1">
    <g id="Group" stroke-linejoin="miter" stroke-linecap="round" stroke="none" stroke-width="0.569" stroke-miterlimit="79.8403193612775">
     <path d="M 521.626,176.215 C 514.517,250.075 491.873,233.316 496.207,176.215 L 496.207,65.236 C 496.207,52.043 485.499,41.335 472.306,41.335 L 368.155,41.335 C 354.962,41.335 344.254,52.043 344.254,65.236 L 344.254,169.802 C 343.311,173.804 340.536,175.557 336.869,176.215 L 158.866,176.215 C 154.782,174.926 152.259,171.716 153.026,164.477 L 152.173,164.45 L 152.173,65.236 C 152.173,52.043 141.464,41.335 128.272,41.335 L 24.12,41.335 C 10.928,41.335 0.219,52.043 0.219,65.236 L 0.219,357.198 C 0.219,368.507 9.398,377.686 20.708,377.686 L 596.088,377.686 C 607.398,377.686 616.577,368.507 616.577,357.198 L 616.577,239.348 L 616.704,239.389 L 614.997,122.435 C 616.492,104.312 643.068,93.214 651.705,124.142 L 650.851,155.728 C 647.81,167.339 650.578,175.01 667.925,172.802 L 703.78,173.656 C 709.266,173.672 714.771,175.038 720,156.582 C 716.175,-28.1 526.505,-1.352 521.626,176.215 Z" fill="#de0000" marker-start="none" marker-end="none"/>
     <path d="M 599.503,393.052 L 18.998,396.467 C 7.707,400.358 1.016,410.26 3.632,432.322 C -27.533,617.225 147.529,660.06 310.958,662.816 C 464.156,665.4 616.203,635.096 618.284,435.737 C 617.555,404.401 609.349,396.192 599.503,393.052 Z M 132.716,432.957 L 152.084,494.903 L 215.323,492.023 L 162.396,529.587 L 184.679,588.842 L 132.597,550.112 L 83.127,589.614 L 103.868,528.114 L 51.012,493.27 L 115.913,493.994 L 132.716,432.957 Z M 312.214,432.957 L 331.583,494.903 L 394.821,492.023 L 341.895,529.587 L 364.178,588.842 L 312.096,550.112 L 262.626,589.614 L 283.367,528.114 L 230.511,493.27 L 295.412,493.994 L 312.214,432.957 Z M 491.713,432.957 L 511.082,494.903 L 574.32,492.023 L 521.394,529.587 L 543.677,588.842 L 491.595,550.112 L 442.125,589.614 L 462.866,528.114 L 410.01,493.27 L 474.911,493.994 L 491.713,432.957 Z" fill="#1504bd" marker-start="none" marker-end="none"/>
    </g>
   </g>
  </g>
 </g>
</svg>
